<svg width="512" height="512" viewBox="0 0 512 512" xmlns="http://www.w3.org/2000/svg">
    <path fill="#000000" d="M503.86 251.974a165.971 165.971 0 0 0-.37-5.77v-.067c-1.845-20.917-8.756-40.492-20.48-58.172a127.018 127.018 0 0 0-17.916-21.47c-9.78-9.41-21.102-17.195-33.866-23.35c-19.207-9.175-40.426-13.805-63.07-13.805c-2.214 0-4.528.033-6.862.118c-15.903.721-31.282 3.74-45.743 9.058c-14.576 5.264-27.275 12.224-37.658 20.577c-2.114 1.679-4.412 3.74-6.878 6.006l-1.777 1.745l-2.432 2.583h.033l-1.14 1.124l-.555.603l-2.901 3.053a202.684 202.684 0 0 0-6.105 7.196l-.017-.033l-.066-.066c-3.976 4.831-7.648 9.829-10.35 14.326a246.474 246.474 0 0 0-5.334 8.822l-23.702 47.923l.033.033l-1.242 2.433l-2.616 5.3c-5.2 10.518-10.77 21.002-16.992 29.657c-13.872 15.215-29.555 22.663-49.72 22.663a75.83 75.83 0 0 1-4.327-.151c-12.144-.485-22.562-3.354-31.804-8.822a58.448 58.448 0 0 1-2.869-1.813c-7.547-5.015-13.336-11.457-17.663-19.49c-4.882-9.108-7.046-18.418-6.744-28.282c.015-.269.033-.505.033-.722c.655-15.7 6.642-27.911 18.703-38.462c2.935-2.534 6.006-4.68 9.209-6.592a26.267 26.267 0 0 1 1.358-.755c8.957-4.881 19.156-7.314 30.847-7.314l3.64.101c18.568.705 32.894 6.508 44.317 17.831l35.83-64.328c-8.573-5.737-18.251-10.668-28.92-14.678c-.402-.15-.822-.318-1.241-.452c-1.275-.453-2.534-.922-3.842-1.341c-11.34-3.79-23.234-6.124-35.478-7.18c-.296-.054-.63-.087-.932-.122c-1.879-.115-3.793-.351-5.67-.436a183.291 183.291 0 0 0-6.124-.134h-1.158c-22.526.085-43.462 4.697-62.6 13.84C59.26 153.492 41.882 168.538 29 187.93c-12.848 19.391-19.86 40.911-20.867 64.01c-.083 1.98-.133 3.94-.133 5.871c-.015 32.308 11.76 60.722 35.176 84.575c24.44 25.027 56.228 38.515 94.388 40.108c2.45.1 4.865.167 7.28.167c21.59 0 41.567-3.842 59.48-11.523c4.48-1.912 8.823-4.16 13.269-6.659a95.7 95.7 0 0 0 6.96-4.446l1.678-1.124l2.82-1.928c3.389-2.432 6.559-5.065 9.644-7.868l1.073-1.022c1.812-1.728 3.623-3.472 5.334-5.268l6.425-7.262l2.45-3.07l1.14-1.678l1.141-1.643c9.544-16.035 40.61-74.393 40.61-74.393v-.117l1.845-3.557l1.544-2.784c4.58-8.336 7.884-14.258 12.262-20.48l.117-.183c10.215-14.812 27.778-25.362 48.478-27.142c34.722-2.986 65.15 19.828 67.951 50.96c2.784 31.132-23.115 58.794-57.837 61.797c-7.23.62-14.258.134-20.883-1.325l-.168.066c-25.48-5.301-41.7-23.886-49.702-32.19l-33.414 61.444s10.382 10.467 17.496 15.7c7.13 5.216 16.339 10.35 23.686 13.536c17.831 7.616 37.223 12.18 58.643 12.18c2.482 0 1.98 0 4.563-.102c38.128-1.593 72.112-16.205 96.62-41.232c23.215-23.768 35.813-50.91 35.931-83.031v-.957a207.66 207.66 0 0 0-.138-5.386z"/>
</svg>