<?xml version="1.0" standalone="no"?><!DOCTYPE svg PUBLIC "-//W3C//DTD SVG 1.1//EN" "http://www.w3.org/Graphics/SVG/1.1/DTD/svg11.dtd"><svg t="1692079861130" class="icon" viewBox="0 0 1024 1024" version="1.1" xmlns="http://www.w3.org/2000/svg" p-id="4059" xmlns:xlink="http://www.w3.org/1999/xlink" width="128" height="128"><path d="M896 192c38.4 0 64 25.6 64 64v512c0 38.4-25.6 64-64 64H128c-38.4 0-64-25.6-64-64V256c0-38.4 25.6-64 64-64h768zM128 128C57.6 128 0 185.6 0 256v512c0 70.4 57.6 128 128 128h768c70.4 0 128-57.6 128-128V256c0-70.4-57.6-128-128-128H128z" p-id="4060"></path><path d="M582.4 518.4c12.8-6.4 38.4-6.4 51.2 0l102.4 102.4 102.4-102.4c12.8-12.8 32-12.8 44.8 0s12.8 32 0 44.8l-128 128c-12.8 12.8-32 12.8-44.8 0l-128-128c-6.4-6.4-6.4-32 0-44.8z" p-id="4061"></path><path d="M736 320c19.2 0 32 12.8 32 32v256c0 19.2-12.8 32-32 32s-32-12.8-32-32v-256c0-19.2 12.8-32 32-32z" p-id="4062"></path><path d="M230.4 704V448h6.4L320 652.8h51.2L460.8 448h6.4v256h70.4V320H460.8L352 569.6 236.8 320H160v384h70.4z" p-id="4063"></path></svg>