<?xml version="1.0" standalone="no"?><!DOCTYPE svg PUBLIC "-//W3C//DTD SVG 1.1//EN" "http://www.w3.org/Graphics/SVG/1.1/DTD/svg11.dtd"><svg t="1696440339015" class="icon" viewBox="0 0 1024 1024" version="1.1" xmlns="http://www.w3.org/2000/svg" p-id="6050" xmlns:xlink="http://www.w3.org/1999/xlink" width="128" height="128"><path d="M505.8 201.7c-17 0-30.8-13.8-30.8-30.8s13.8-30.8 30.8-30.8 30.8 13.8 30.8 30.8c0.1 17-13.8 30.8-30.8 30.8z m0-46.5c-8.6 0-15.7 7-15.7 15.7 0 8.6 7 15.7 15.7 15.7s15.7-7 15.7-15.7c0-8.6-7-15.7-15.7-15.7z" fill="#47B7F8" p-id="6051"></path><path d="M677 170h-13.5v-13.5c0-3.6-2.9-6.5-6.5-6.5s-6.5 2.9-6.5 6.5V170H637c-3.6 0-6.5 2.9-6.5 6.5s2.9 6.5 6.5 6.5h13.5v13.5c0 3.6 2.9 6.5 6.5 6.5s6.5-2.9 6.5-6.5V183H677c3.6 0 6.5-2.9 6.5-6.5s-2.9-6.5-6.5-6.5z" fill="#F7E42F" p-id="6052"></path><path d="M938.7 436.8H923v-15.7c0-4.2-3.4-7.6-7.6-7.6s-7.6 3.4-7.6 7.6v15.7h-15.7c-4.2 0-7.6 3.4-7.6 7.6 0 4.2 3.4 7.6 7.6 7.6h15.7v15.7c0 4.2 3.4 7.6 7.6 7.6s7.6-3.4 7.6-7.6V452h15.7c4.2 0 7.6-3.4 7.6-7.6 0-4.3-3.4-7.6-7.6-7.6z" fill="#F8B62D" p-id="6053"></path><path d="M227.8 208.9m-11.4 0a11.4 11.4 0 1 0 22.8 0 11.4 11.4 0 1 0-22.8 0Z" fill="#F8B62D" p-id="6054"></path><path d="M781.3 230.9m-15.2 0a15.2 15.2 0 1 0 30.4 0 15.2 15.2 0 1 0-30.4 0Z" fill="#F8B62D" p-id="6055"></path><path d="M115.2 413.5m-15.2 0a15.2 15.2 0 1 0 30.4 0 15.2 15.2 0 1 0-30.4 0Z" fill="#F7E42F" p-id="6056"></path><path d="M132.6 651.4c-17 0-30.8-13.8-30.8-30.8s13.8-30.8 30.8-30.8 30.8 13.8 30.8 30.8-13.9 30.8-30.8 30.8z m0-46.4c-8.6 0-15.7 7-15.7 15.7 0 8.6 7 15.7 15.7 15.7s15.7-7 15.7-15.7c-0.1-8.7-7.1-15.7-15.7-15.7z" fill="#F8B62D" p-id="6057"></path><path d="M318.6 68.3c-1.6-1.6-4.3-1.6-5.9 0-0.8 0.8-1.2 1.9-1.2 3s0.4 2.2 1.2 3l13.5 13.5c0.8 0.8 1.8 1.2 3 1.2s2.2-0.4 3-1.2c1.6-1.6 1.6-4.3 0-5.9l-13.6-13.6zM354.1 103.9c-0.8-0.8-1.8-1.2-3-1.2-1.1 0-2.2 0.4-3 1.2-1.6 1.6-1.6 4.3 0 5.9l13.5 13.5c0.8 0.8 1.8 1.2 3 1.2 1.1 0 2.2-0.4 3-1.2 0.8-0.8 1.2-1.8 1.2-3 0-1.1-0.4-2.2-1.2-3l-13.5-13.4zM351.2 89c1.1 0 2.2-0.4 3-1.2l13.5-13.5c0.8-0.8 1.2-1.8 1.2-3 0-1.1-0.4-2.2-1.2-3-1.6-1.6-4.3-1.6-5.9 0l-13.5 13.5c-1.6 1.6-1.6 4.3 0 5.9 0.7 0.8 1.7 1.3 2.9 1.3zM326.1 103.9l-13.5 13.5c-0.8 0.8-1.2 1.9-1.2 3s0.4 2.2 1.2 3c0.8 0.8 1.8 1.2 3 1.2 1.1 0 2.2-0.4 3-1.2l13.5-13.5c1.6-1.6 1.6-4.3 0-5.9-1.6-1.7-4.4-1.7-6-0.1zM328.7 95.8c0-2.3-1.9-4.2-4.2-4.2h-19c-2.3 0-4.2 1.9-4.2 4.2s1.9 4.2 4.2 4.2h19c2.3 0 4.2-1.9 4.2-4.2zM374.8 91.6h-19c-2.3 0-4.2 1.9-4.2 4.2s1.9 4.2 4.2 4.2h19c2.3 0 4.2-1.9 4.2-4.2s-1.9-4.2-4.2-4.2zM340.1 57c-2.3 0-4.2 1.9-4.2 4.2v19c0 2.3 1.9 4.2 4.2 4.2 2.3 0 4.2-1.9 4.2-4.2v-19c0-2.4-1.9-4.2-4.2-4.2zM340.1 107.2c-2.3 0-4.2 1.9-4.2 4.2v19c0 2.3 1.9 4.2 4.2 4.2 2.3 0 4.2-1.9 4.2-4.2v-19c0-2.3-1.9-4.2-4.2-4.2z" fill="#FAEE00" p-id="6058"></path><path d="M831.1 624c-1.6-1.6-4.3-1.6-5.9 0-0.8 0.8-1.2 1.9-1.2 3s0.4 2.2 1.2 3l13.5 13.5c0.8 0.8 1.8 1.2 3 1.2s2.2-0.4 3-1.2c1.6-1.6 1.6-4.3 0-5.9L831.1 624zM866.7 659.5c-0.8-0.8-1.8-1.2-3-1.2-1.1 0-2.2 0.4-3 1.2-1.6 1.6-1.6 4.3 0 5.9l13.5 13.5c0.8 0.8 1.8 1.2 3 1.2 1.1 0 2.2-0.4 3-1.2 0.8-0.8 1.2-1.8 1.2-3s-0.4-2.2-1.2-3l-13.5-13.4zM863.7 644.6c1.1 0 2.2-0.4 3-1.2l13.5-13.5c0.8-0.8 1.2-1.8 1.2-3s-0.4-2.2-1.2-3c-1.6-1.6-4.3-1.6-5.9 0l-13.5 13.5c-1.6 1.6-1.6 4.3 0 5.9 0.7 0.9 1.8 1.3 2.9 1.3zM838.7 659.5L825.2 673c-0.8 0.8-1.2 1.9-1.2 3s0.4 2.2 1.2 3c0.8 0.8 1.8 1.2 3 1.2 1.1 0 2.2-0.4 3-1.2l13.5-13.5c1.6-1.6 1.6-4.3 0-5.9-1.7-1.7-4.4-1.7-6-0.1zM841.3 651.4c0-2.3-1.9-4.2-4.2-4.2h-19c-2.3 0-4.2 1.9-4.2 4.2 0 2.3 1.9 4.2 4.2 4.2h19c2.3 0 4.2-1.8 4.2-4.2zM887.3 647.2h-19c-2.3 0-4.2 1.9-4.2 4.2 0 2.3 1.9 4.2 4.2 4.2h19c2.3 0 4.2-1.9 4.2-4.2 0-2.3-1.9-4.2-4.2-4.2zM852.7 612.6c-2.3 0-4.2 1.9-4.2 4.2v19c0 2.3 1.9 4.2 4.2 4.2 2.3 0 4.2-1.9 4.2-4.2v-19c0-2.3-1.9-4.2-4.2-4.2zM852.7 662.8c-2.3 0-4.2 1.9-4.2 4.2v19c0 2.3 1.9 4.2 4.2 4.2 2.3 0 4.2-1.9 4.2-4.2v-19c0-2.3-1.9-4.2-4.2-4.2z" fill="#F8B62D" p-id="6059"></path><path d="M873.1 919.4H846c-6.3 0-11.4-5.1-11.4-11.4 0-6.3 5.1-11.4 11.4-11.4h27.1c6.3 0 11.4 5.1 11.4 11.4 0 6.3-5.1 11.4-11.4 11.4zM149.9 919.4h-34.6c-6.3 0-11.4-5.1-11.4-11.4 0-6.3 5.1-11.4 11.4-11.4h34.6c6.3 0 11.4 5.1 11.4 11.4-0.1 6.3-5.1 11.4-11.4 11.4zM812.6 919.4H188.1c-6.3 0-11.4-5.1-11.4-11.4 0-6.3 5.1-11.4 11.4-11.4h624.5c6.3 0 11.4 5.1 11.4 11.4 0 6.3-5.1 11.4-11.4 11.4z" fill="#3E3A39" p-id="6060"></path><path d="M481.7 879.3L178.1 508.9c-7.6-9.3-8.6-22.3-2.5-32.6l106.2-180c5.3-8.9 15-14.4 25.5-14.4H720c10.7 0 20.6 5.7 25.8 15l100.4 179.6c5.7 10.3 4.6 22.9-2.9 32l-304 370.8c-14.8 18.1-42.8 18.1-57.6 0z" fill="#FCEE21" p-id="6061"></path><path d="M745.7 296.9c-5.2-9.2-15.1-15-25.8-15H503.4v610.2c12.9 2.4 26.8-1.8 35.8-12.8l303.9-370.8c7.5-9.1 8.6-21.8 2.9-32L745.7 296.9z" fill="#F8B62D" p-id="6062"></path><path d="M501.1 904.2c-15 0-29.1-6.7-38.5-18.4L149.9 497.3c-10.7-13.3-12.2-32.2-3.6-47l46.2-79.8c3.1-5.4 10.1-7.3 15.5-4.1 5.4 3.1 7.3 10.1 4.1 15.5L166 461.7c-3.9 6.7-3.2 15.3 1.6 21.4l312.7 388.5c5.1 6.3 12.7 10 20.8 10 8.1 0 15.7-3.6 20.8-10l313-388.9c4.8-6 5.6-14.2 1.8-21L733.4 273.3c-3.3-6.1-9.7-9.8-16.6-9.8H291.7c-6.7 0-13 3.6-16.4 9.5l-8.5 14.7c-3.1 5.4-10.1 7.3-15.5 4.1-5.4-3.1-7.3-10.1-4.1-15.5l8.5-14.7c7.4-12.8 21.3-20.8 36.1-20.8h425.1c15.2 0 29.2 8.3 36.5 21.6l103.4 188.3c8.2 14.9 6.6 33-4.1 46.2l-313 388.9c-9.6 11.7-23.6 18.4-38.6 18.4z" fill="#3E3A39" p-id="6063"></path><path d="M223.2 346.1c-1.9 0-3.9-0.5-5.7-1.5-5.4-3.1-7.3-10.1-4.1-15.5l11.4-19.6c3.1-5.4 10.1-7.3 15.5-4.1 5.4 3.1 7.3 10.1 4.1 15.5L233 340.4c-2.1 3.7-5.9 5.7-9.8 5.7z" fill="#3E3A39" p-id="6064"></path><path d="M502.5 886.9L630.4 512" fill="#FCEE21" p-id="6065"></path><path d="M502.5 898.3c-1.2 0-2.5-0.2-3.7-0.6-5.9-2-9.1-8.5-7.1-14.4l127.9-375c2-5.9 8.5-9.1 14.4-7.1s9.1 8.5 7.1 14.4l-127.9 375c-1.5 4.7-5.9 7.7-10.7 7.7z" fill="#3E3A39" p-id="6066"></path><path d="M501.1 886.9L363.7 502.4" fill="#FCEE21" p-id="6067"></path><path d="M501.1 898.3c-4.7 0-9-2.9-10.7-7.5L353 506.3c-2.1-5.9 1-12.4 6.9-14.5 5.9-2.1 12.4 1 14.5 6.9l137.4 384.5c2.1 5.9-1 12.4-6.9 14.5-1.3 0.4-2.5 0.6-3.8 0.6z" fill="#3E3A39" p-id="6068"></path><path d="M345 441.6c-2.7 0-5.5-1-7.7-3-4.6-4.2-5-11.4-0.7-16.1l156-170.6c2.1-2.3 5.1-3.7 8.3-3.7h0.1c3.1 0 6.1 1.3 8.3 3.6L670 422.5c4.3 4.6 4.1 11.8-0.5 16.1-4.6 4.3-11.8 4.1-16.1-0.5L501.2 276.4 353.4 437.9c-2.2 2.5-5.3 3.7-8.4 3.7z" fill="#3E3A39" p-id="6069"></path><path d="M786.6 467.7c0 19.2-15.7 34.8-34.8 34.8H285.6c-19.2 0-34.8-15.7-34.8-34.8 0-19.2 15.7-34.8 34.8-34.8h466.2c19.2 0 34.8 15.6 34.8 34.8z" fill="#FFFFFF" p-id="6070"></path><path d="M751.8 513.9h-501c-25.5 0-46.2-20.7-46.2-46.2 0-25.5 20.7-46.2 46.2-46.2h501.1c25.5 0 46.2 20.7 46.2 46.2-0.1 25.5-20.8 46.2-46.3 46.2z m-501-69.7c-12.9 0-23.5 10.5-23.5 23.5 0 12.9 10.5 23.5 23.5 23.5h501.1c12.9 0 23.5-10.5 23.5-23.5 0-12.9-10.5-23.5-23.5-23.5H250.8z" fill="#3E3A39" p-id="6071"></path><path d="M275.8 387.5c-1.8 0-3.7-0.4-5.4-1.4-5.5-3-7.6-9.9-4.6-15.4l28.3-52.2c5-9.3 14.7-15.1 25.3-15.1H345c6.3 0 11.4 5.1 11.4 11.4s-5.1 11.4-11.4 11.4h-25.6c-2.2 0-4.2 1.2-5.3 3.1l-28.3 52.2c-2 3.9-5.9 6-10 6z" fill="#FFFFFF" p-id="6072"></path></svg>