<?xml version="1.0" standalone="no"?><!DOCTYPE svg PUBLIC "-//W3C//DTD SVG 1.1//EN" "http://www.w3.org/Graphics/SVG/1.1/DTD/svg11.dtd"><svg t="1692070987284" class="icon" viewBox="0 0 1024 1024" version="1.1" xmlns="http://www.w3.org/2000/svg" p-id="4081" xmlns:xlink="http://www.w3.org/1999/xlink" width="128" height="128"><path d="M478.465834 0.271985c-2.19188 0.207989-9.199497 0.91195-15.519151 1.407923-145.432047 13.119283-281.648597 91.562993-367.931879 212.148398-48.045373 67.068332-78.779692 143.128173-90.395057 223.683768C0.53997 465.638535 0.027998 473.942081 0.027998 512.067996s0.495973 46.44546 4.607748 74.555923C32.458225 778.885405 169.282742 940.42857 354.856594 1000.265298c33.230183 10.719414 68.268267 18.015015 108.090089 22.414774 15.519151 1.711906 82.587483 1.711906 98.090635 0 68.764239-7.599584 127.033053-24.606654 184.469912-53.93305 8.815518-4.511753 10.511425-5.711688 9.311491-6.719633-0.799956-0.591968-38.333904-50.925215-83.371441-111.769887l-81.867523-110.585953-102.602389-151.831696c-56.460912-83.451436-102.890373-151.703704-103.290351-151.703704-0.399978-0.111994-0.799956 67.356316-1.007945 149.703813-0.303983 144.216113-0.399978 150.023796-2.207879 153.431609-2.591858 4.895732-4.591749 6.895623-8.799519 9.103502-3.199825 1.599913-5.999672 1.903896-21.118845 1.903896h-17.311053l-4.607748-2.911841a18.718976 18.718976 0 0 1-6.719633-7.295601l-2.079886-4.511753L320.010499 534.882749l0.303984-200.757022 3.10383-3.887787c1.599913-2.111885 4.991727-4.799738 7.391596-6.111666 4.111775-1.999891 5.711688-2.207879 23.03874-2.207879 20.414884 0 23.806698 0.799956 29.118407 6.607639 1.503918 1.599913 57.05288 85.275337 123.513246 186.053825 66.460365 100.778489 157.335396 238.386963 201.988954 305.935269l81.067566 122.793285 4.111775-2.703852c36.318014-23.614709 74.763911-57.244869 105.194248-92.266954 64.764458-74.363933 106.490176-165.030975 120.505409-261.713688 4.111775-28.110463 4.607748-36.414009 4.607748-74.555923 0-38.125915-0.495973-46.429461-4.607748-74.555922C991.541775 245.266587 854.717258 83.739421 669.143406 23.886694 636.409196 13.279274 601.5951 5.967674 562.557235 1.599913c-9.599475-1.007945-75.755857-2.111885-84.075402-1.311929z m209.588538 309.647066c4.799738 2.399869 8.719523 7.007617 10.111447 11.807355 0.799956 2.591858 1.007945 58.236815 0.799956 183.637957l-0.287984 179.942159-31.726265-48.63734-31.838259-48.63734v-130.808846c0-84.555376 0.399978-132.088776 1.007945-134.392651 1.599913-5.599694 5.103721-10.015452 9.903459-12.60731 4.095776-2.111885 5.599694-2.303874 21.310834-2.303874 14.81519 0 17.423047 0.19199 20.718867 1.99989z" fill="#000000" p-id="4082"></path></svg>