<?xml version="1.0" standalone="no"?><!DOCTYPE svg PUBLIC "-//W3C//DTD SVG 1.1//EN" "http://www.w3.org/Graphics/SVG/1.1/DTD/svg11.dtd"><svg t="1696470920831" class="icon" viewBox="0 0 1024 1024" version="1.1" xmlns="http://www.w3.org/2000/svg" p-id="4593" xmlns:xlink="http://www.w3.org/1999/xlink" width="128" height="128"><path d="M805.54 705l-0.91 1.5C742.08 808.91 628.69 872.55 508.7 872.55h-0.29c-120 0-233.38-63.64-295.93-166.07l-0.91-1.5h-59l2.37 4.56a398.51 398.51 0 0 0 707.3 0l2.37-4.56zM212.43 344.86C275 242.42 388.37 178.78 508.36 178.78h0.4c120 0 233.38 63.64 295.93 166.08l0.91 1.49h59l-2.37-4.56a398.49 398.49 0 0 0-353.59-214.64h-0.16a398.54 398.54 0 0 0-353.57 214.64l-2.37 4.56h59z" fill="#1E7FFE" p-id="4594"></path><path d="M265.63 668.56c-43.77 0-77-9.32-105.39-38.1L196.72 594c18.24 18.24 43 24.32 69.72 24.32 33.24 0 51.08-12.57 51.08-35.67 0-10.14-2.84-18.65-8.92-24.32-5.67-5.27-12.16-8.11-25.54-10.14l-34.86-4.86c-24.72-3.65-43-11.35-55.94-23.92-13.78-13.78-20.67-32.43-20.67-56.75 0-51.48 38.11-87.55 100.53-87.55 39.72 0 68.5 9.73 93.23 33.64L329.68 444c-18.24-17.43-40.13-19.87-59.18-19.87-30 0-44.59 16.63-44.59 36.49a27.86 27.86 0 0 0 8.51 20.67c5.68 5.27 15 9.73 26.75 11.35l34.05 4.86c26.35 3.65 43 10.95 55.13 22.3 15.4 14.59 22.3 35.67 22.3 61.21 0 55.93-46.65 87.55-107.02 87.55zM425.74 666.13V377.52h190.11v50.26H482.09v67.7H596v50.26H482.09v70.13h133.76v50.26zM845.68 636.94c-20.26 20.27-45 31.62-77.82 31.62s-58-11.35-78.24-31.62c-29.18-29.18-28.37-65.26-28.37-115.12s-0.81-85.93 28.37-115.11c20.27-20.27 45.4-31.62 78.24-31.62s57.56 11.35 77.82 31.62c29.19 29.18 28.78 65.26 28.78 115.11s0.41 85.94-28.78 115.12z m-41.75-196.18c-8.1-9.33-20.67-15.41-36.07-15.41s-28.38 6.08-36.48 15.41c-11 12.16-13.79 25.53-13.79 81.06s2.84 68.91 13.79 81.07c8.1 9.33 21.07 15.41 36.48 15.41s28-6.08 36.07-15.41c11-12.16 14.19-25.53 14.19-81.07s-3.24-68.9-14.19-81.06z" fill="#F4B426" p-id="4595"></path></svg>